<?xml version="1.0" standalone="no"?>
<!DOCTYPE svg PUBLIC "-//W3C//DTD SVG 20010904//EN"
 "http://www.w3.org/TR/2001/REC-SVG-20010904/DTD/svg10.dtd">
<svg version="1.0" xmlns="http://www.w3.org/2000/svg"
 width="440.000000pt" height="567.000000pt" viewBox="0 0 440.000000 567.000000"
 preserveAspectRatio="xMidYMid meet">

<g transform="translate(0.000000,567.000000) scale(0.100000,-0.100000)"
fill="#000000" stroke="none">
<path d="M3330 903 c0 -45 41 -82 93 -83 44 0 87 35 87 72 0 34 -36 32 -50 -3
-7 -15 -20 -29 -30 -32 -21 -5 -50 21 -50 45 0 10 -9 16 -25 16 -15 0 -25 -6
-25 -15z"/>
<path d="M2192 898 c-7 -7 -12 -20 -12 -30 0 -22 38 -25 46 -3 4 8 16 15 29
15 26 0 38 -21 28 -47 -12 -31 -36 -42 -91 -43 -29 0 -62 -4 -72 -10 -13 -7
-21 -6 -30 5 -9 10 -29 15 -62 14 -79 -3 -88 -22 -88 -186 l0 -135 29 -29 c34
-34 61 -38 61 -9 0 11 -6 20 -14 20 -22 0 -26 24 -26 155 0 99 3 127 16 139
18 19 28 20 55 6 18 -10 19 -23 19 -175 l0 -165 25 0 25 0 2 168 3 167 25 3
25 3 -3 -140 c-3 -157 2 -175 53 -197 38 -15 59 -11 93 19 21 20 22 28 22 166
-1 106 -4 151 -14 164 -9 11 -12 33 -8 62 3 28 0 50 -8 60 -15 18 -110 21
-128 3z m105 -150 c11 -19 12 -238 1 -270 -10 -29 -36 -36 -56 -16 -13 13 -18
279 -5 291 11 12 51 8 60 -5z"/>
<path d="M2250 710 c0 -28 2 -30 21 -20 24 13 22 43 -4 48 -13 3 -17 -3 -17
-28z"/>
<path d="M2236 844 c-4 -11 -1 -14 11 -12 9 2 18 9 21 16 6 18 -25 15 -32 -4z"/>
<path d="M3320 840 c0 -5 5 -10 11 -10 5 0 7 5 4 10 -3 6 -8 10 -11 10 -2 0
-4 -4 -4 -10z"/>
<path d="M3485 818 c-16 -10 -40 -18 -53 -18 -23 0 -23 0 -5 -25 10 -13 21
-25 25 -25 17 0 70 57 67 71 -4 14 -8 14 -34 -3z"/>
<path d="M1335 793 c-61 -10 -65 -20 -65 -190 l0 -153 -25 0 c-25 0 -25 0 -25
96 0 98 -11 140 -35 130 -8 -3 -17 -2 -19 3 -8 12 -107 -4 -117 -20 -5 -8 -9
-55 -9 -105 0 -82 2 -93 23 -112 22 -21 57 -30 57 -14 0 4 -9 21 -20 37 -26
39 -28 145 -4 169 21 22 61 20 74 -3 16 -31 13 -146 -5 -161 -8 -7 -15 -23
-15 -36 0 -23 3 -24 60 -24 46 0 60 -3 60 -14 0 -25 43 -64 77 -71 26 -5 37
-2 58 19 25 25 25 26 25 206 0 173 -1 180 -20 180 -19 0 -20 -7 -20 -135 0
-114 -2 -135 -16 -143 -9 -5 -25 -7 -35 -5 -17 5 -19 18 -19 153 0 168 -5 160
90 160 96 0 90 12 90 -190 0 -164 -1 -178 -20 -195 -11 -10 -20 -24 -20 -32 0
-21 39 -15 65 12 25 24 25 26 25 213 0 227 2 222 -112 227 -40 1 -86 1 -103
-2z m43 -408 c-13 -30 -33 -32 -48 -6 -15 29 -13 31 25 31 33 0 34 -1 23 -25z"/>
<path d="M1633 774 c-22 -22 -23 -30 -23 -158 0 -78 5 -145 11 -159 23 -50 95
-62 134 -22 23 22 25 32 25 118 0 113 -9 129 -71 131 -38 1 -44 4 -47 24 -6
40 14 52 89 52 67 0 70 -1 80 -27 15 -40 8 -265 -8 -271 -21 -6 -15 -42 6 -42
42 0 51 35 51 190 0 188 3 183 -126 186 -90 1 -99 -1 -121 -22z m92 -223 c0
-80 -3 -95 -18 -105 -30 -19 -47 17 -47 100 0 92 5 106 39 102 26 -3 26 -3 26
-97z"/>
<path d="M1680 605 c0 -28 24 -34 34 -9 8 20 -1 34 -20 34 -8 0 -14 -10 -14
-25z"/>
<path d="M2616 779 c-20 -16 -21 -27 -21 -169 l0 -152 28 -24 c15 -13 37 -24
48 -24 28 0 24 34 -6 54 -25 16 -25 19 -25 144 0 135 5 152 46 152 38 0 43
-20 46 -186 3 -156 3 -159 26 -162 l22 -3 0 163 c0 172 4 188 45 188 39 0 45
-18 45 -146 0 -130 -4 -154 -26 -154 -8 0 -14 -10 -14 -25 0 -34 24 -32 61 4
l29 29 0 140 c0 121 -2 143 -18 163 -21 25 -75 29 -125 8 -20 -8 -31 -9 -35
-2 -12 19 -103 20 -126 2z"/>
<path d="M3062 792 c-63 -4 -85 -28 -80 -89 2 -30 7 -38 23 -38 16 0 21 8 23
35 4 43 18 60 46 60 41 0 46 -17 46 -149 -1 -133 -9 -161 -47 -161 -29 0 -43
20 -43 62 0 37 -13 51 -23 26 -4 -10 -6 -10 -6 0 -1 6 -5 12 -11 12 -5 0 -10
-18 -10 -41 0 -85 93 -129 157 -75 28 24 28 26 31 158 5 187 -5 206 -106 200z"/>
<path d="M3249 781 c-21 -17 -24 -28 -24 -81 0 -53 3 -65 24 -81 13 -11 41
-22 63 -25 51 -9 68 -27 68 -74 0 -30 -6 -43 -26 -59 -15 -12 -30 -21 -35 -21
-18 0 -49 45 -49 72 0 15 -4 28 -10 28 -5 0 -10 -6 -10 -12 0 -9 -3 -8 -10 2
-8 12 -10 12 -16 -3 -8 -22 3 -67 23 -89 19 -21 73 -33 108 -24 49 12 65 40
65 110 0 70 -7 82 -59 91 -38 7 -72 23 -83 39 -12 18 -9 81 4 94 7 7 26 12 43
12 38 0 55 -16 55 -52 0 -21 5 -28 20 -28 17 0 20 7 20 39 0 52 -20 71 -75 71
-24 0 -50 2 -58 5 -7 3 -25 -3 -38 -14z"/>
<path d="M2017 744 c-4 -4 -7 -18 -7 -31 0 -18 5 -22 25 -21 21 2 25 7 23 28
-3 24 -27 38 -41 24z"/>
<path d="M1340 709 c0 -27 2 -30 15 -19 8 7 15 21 15 31 0 11 -7 19 -15 19
-10 0 -15 -10 -15 -31z"/>
<path d="M1450 722 c0 -11 7 -25 15 -32 13 -10 15 -9 15 9 0 11 0 24 1 29 0 4
-7 8 -15 10 -10 2 -16 -4 -16 -16z"/>
<path d="M1680 730 c0 -5 10 -10 23 -10 12 -1 33 -7 47 -15 14 -8 35 -14 48
-15 19 0 23 5 20 23 -3 20 -9 22 -70 25 -43 2 -68 -1 -68 -8z"/>
<path d="M2152 710 c0 -19 2 -27 5 -17 2 9 2 25 0 35 -3 9 -5 1 -5 -18z"/>
<path d="M2667 733 c-16 -15 -6 -41 18 -45 22 -5 25 -2 25 23 0 21 -5 29 -18
29 -10 0 -22 -3 -25 -7z"/>
<path d="M2800 713 c0 -23 4 -28 25 -28 21 0 25 5 25 28 0 22 -4 27 -25 27
-21 0 -25 -5 -25 -27z"/>
<path d="M3050 713 c0 -23 4 -28 25 -28 21 0 25 5 25 28 0 22 -4 27 -25 27
-21 0 -25 -5 -25 -27z"/>
<path d="M3297 734 c-4 -4 -7 -17 -7 -28 0 -17 7 -21 36 -22 32 0 35 2 32 25
-2 19 -10 27 -28 29 -14 2 -29 0 -33 -4z"/>
<path d="M3370 656 c0 -3 13 -14 29 -25 l29 -21 4 25 c5 23 2 25 -28 25 -19 0
-34 -2 -34 -4z"/>
<path d="M2981 641 c-10 -7 -11 -13 -2 -29 9 -17 16 -19 34 -13 31 11 35 46 5
48 -13 1 -29 -1 -37 -6z"/>
<path d="M1104 616 c-9 -22 4 -36 32 -36 21 0 25 4 22 23 -4 26 -45 37 -54 13z"/>
<path d="M3216 603 c10 -40 12 -43 38 -43 13 0 30 -8 37 -19 8 -10 26 -22 42
-25 24 -6 27 -4 27 19 0 14 -6 27 -12 29 -7 2 -31 9 -53 15 -23 6 -51 20 -63
31 l-23 21 7 -28z"/>
<path d="M1030 419 c11 -38 43 -69 71 -69 30 0 24 39 -8 51 -16 6 -38 20 -50
31 l-22 21 9 -34z"/>
<path d="M2347 432 c-10 -10 -14 -22 -10 -25 12 -13 21 -7 25 18 6 30 6 30
-15 7z"/>
<path d="M2170 430 c0 -5 5 -10 11 -10 5 0 7 5 4 10 -3 6 -8 10 -11 10 -2 0
-4 -4 -4 -10z"/>
<path d="M2585 419 c9 -31 60 -79 84 -79 17 0 31 18 31 40 0 4 -14 10 -31 14
-17 3 -44 16 -61 27 l-30 22 7 -24z"/>
<path d="M2891 413 c-19 -12 -42 -23 -52 -23 -23 0 -26 -38 -5 -46 24 -9 73
24 85 57 6 18 10 33 9 34 -2 1 -18 -9 -37 -22z"/>
<path d="M2970 430 c0 -45 54 -90 109 -90 36 0 89 43 96 77 l4 23 -28 -21
c-45 -33 -99 -35 -143 -5 -21 14 -38 21 -38 16z"/>
<path d="M3217 415 c9 -44 49 -70 108 -70 60 0 87 18 104 67 11 30 11 30 -12
14 -58 -43 -122 -45 -175 -7 l-29 20 4 -24z"/>
<path d="M1153 394 c-18 -8 -16 -41 3 -48 9 -3 35 -6 59 -6 38 0 44 -3 55 -29
11 -29 61 -61 93 -61 23 0 77 49 77 71 0 18 -1 17 -35 -2 -32 -19 -39 -20 -77
-7 -31 9 -48 23 -63 48 -17 31 -25 36 -60 37 -22 1 -46 0 -52 -3z"/>
<path d="M2072 378 c5 -34 41 -36 56 -3 11 24 10 25 -24 25 -31 0 -35 -3 -32
-22z"/>
<path d="M2219 396 c-2 -3 -17 -7 -32 -10 -40 -7 -47 -14 -47 -51 0 -40 22
-65 56 -65 27 0 33 24 9 34 -20 7 -19 52 1 60 64 25 124 -14 84 -54 -26 -26
-25 -40 1 -40 42 0 59 18 59 64 0 42 -18 65 -40 51 -5 -3 -11 -1 -15 5 -6 10
-67 14 -76 6z"/>
<path d="M2731 391 c-17 -11 -8 -39 15 -48 20 -8 49 21 41 41 -7 18 -34 21
-56 7z"/>
<path d="M1856 374 c-11 -8 -29 -11 -39 -8 -14 4 -18 2 -15 -7 7 -22 33 -22
59 0 28 23 23 36 -5 15z"/>
<path d="M2017 379 c-9 -6 -27 -7 -40 -4 -21 6 -21 6 -3 -9 29 -23 66 -21 66
4 0 23 1 23 -23 9z"/>
<path d="M1647 353 c9 -7 31 -13 48 -13 17 0 39 6 48 13 15 10 7 12 -48 12
-55 0 -63 -2 -48 -12z"/>
<path d="M1544 336 c-8 -34 -39 -60 -64 -53 -13 3 -20 0 -20 -9 0 -24 40 -15
71 15 16 16 29 39 29 50 0 28 -8 26 -16 -3z"/>
<path d="M2210 339 c0 -7 8 -17 17 -24 14 -10 21 -10 40 2 13 8 20 19 17 24
-8 13 -74 11 -74 -2z"/>
<path d="M2135 248 c6 -30 34 -50 65 -46 39 5 38 35 -2 46 -18 6 -41 13 -50
17 -14 5 -16 2 -13 -17z"/>
<path d="M2304 253 c-34 -11 -41 -18 -37 -34 10 -38 93 -10 93 32 0 22 0 22
-56 2z"/>
</g>
</svg>
